PathFileType	4	(X/Y/Z)	Kaydara	
DataRate	CameraRate	NumFrames	NumMarkers	Units	OrigDataRate	OrigDataStartFrame	OrigNumFrames	
60.00	60.00	4	74	mm	60.00	1202	200	
Frame#	Time	Z_lasi			Z_rasi			Z_rpsi			Z_lpsi			Z_fneck			Z_bneck			Z_fhead			Z_rhead			Z_lhead			Z_rshld			Z_relbtop			Z_relbext			Z_relblow			Z_rwrext			Z_rwrtop			Z_rwrlow			Z_lshld			Z_lelbext			Z_lelblow			Z_lelbtop			Z_lwrext			Z_lwrtop			Z_lwrlow			Z_rtopleg			Z_ltopleg			Z_rkneefr			Z_rkneebk			Z_rkneeis			Z_lkneefr			Z_lknssbk			Z_lkneeis			Z_rankfr			Z_rankis			Z_rankbk			Z_lankfr			Z_lankbk			Z_lankis			A_lasi			A_rasi			A_rpsi			A_lpsi			A_fneck			A_bneck			A_fhead			A_rhead			A_lhead			A_rshld			A_relbtop			A_relbext			A_relblow			A_rwrext			A_rwrtop			A_rwrlow			A_lshld			A_lelbext			A_lelblow			A_lelbtop			A_lwrext			A_lwrtop			A_lwrlow			A_rtopleg			A_ltopleg			A_rkneefr			A_rkneebk			A_rkneeis			A_lkneefr			A_lknssbk			A_lkneeis			A_rankfr			A_rankis			A_rankbk			A_lankfr			A_lankbk			A_lankis			
		X1	Y1	Z1	X2	Y2	Z2	X3	Y3	Z3	X4	Y4	Z4	X5	Y5	Z5	X6	Y6	Z6	X7	Y7	Z7	X8	Y8	Z8	X9	Y9	Z9	X10	Y10	Z10	X11	Y11	Z11	X12	Y12	Z12	X13	Y13	Z13	X14	Y14	Z14	X15	Y15	Z15	X16	Y16	Z16	X17	Y17	Z17	X18	Y18	Z18	X19	Y19	Z19	X20	Y20	Z20	X21	Y21	Z21	X22	Y22	Z22	X23	Y23	Z23	X24	Y24	Z24	X25	Y25	Z25	X26	Y26	Z26	X27	Y27	Z27	X28	Y28	Z28	X29	Y29	Z29	X30	Y30	Z30	X31	Y31	Z31	X32	Y32	Z32	X33	Y33	Z33	X34	Y34	Z34	X35	Y35	Z35	X36	Y36	Z36	X37	Y37	Z37	X38	Y38	Z38	X39	Y39	Z39	X40	Y40	Z40	X41	Y41	Z41	X42	Y42	Z42	X43	Y43	Z43	X44	Y44	Z44	X45	Y45	Z45	X46	Y46	Z46	X47	Y47	Z47	X48	Y48	Z48	X49	Y49	Z49	X50	Y50	Z50	X51	Y51	Z51	X52	Y52	Z52	X53	Y53	Z53	X54	Y54	Z54	X55	Y55	Z55	X56	Y56	Z56	X57	Y57	Z57	X58	Y58	Z58	X59	Y59	Z59	X60	Y60	Z60	X61	Y61	Z61	X62	Y62	Z62	X63	Y63	Z63	X64	Y64	Z64	X65	Y65	Z65	X66	Y66	Z66	X67	Y67	Z67	X68	Y68	Z68	X69	Y69	Z69	X70	Y70	Z70	X71	Y71	Z71	X72	Y72	Z72	X73	Y73	Z73	X74	Y74	Z74	

1	20.017	-218.68380	1080.62416	693.13133	-281.98996	1090.09338	496.74606	-116.61651	1114.18289	403.83621	-35.58736	1098.40012	636.10664	-230.84925	1422.67349	577.27364	-153.48570	1520.94269	582.52129	-401.69952	1529.93515	581.51691	-279.47403	1628.74619	520.48317	-273.32977	1604.93607	667.10007	-188.28308	1437.77542	370.05932	-139.45915	1122.18956	281.57925	-111.49477	1105.03197	333.88798	-205.48822	1127.93030	321.06300	-222.79850	888.77213	283.16763	-257.46723	900.35255	310.96897	-235.38210	896.21498	347.59342	-118.42050	1441.43127	760.25520	-59.98780	1126.16074	761.00410	-124.93211	1140.31509	821.94023	-56.03921	1144.15482	830.07210	-166.27235	878.94997	800.33981	-158.86363	871.61026	846.31592	-112.23981	872.34924	842.55829	-173.77913	925.17426	362.38895	-131.74276	895.01785	725.40184	-240.45654	422.35054	411.38847	-172.30057	452.56287	357.13814	-178.11455	430.06172	480.13058	-183.53746	447.47253	687.22992	-78.80776	472.52899	667.10480	-179.72885	443.37444	594.28673	-202.84082	181.35736	378.46691	-179.42184	175.19747	440.52299	-126.70885	173.00434	370.73387	-121.97630	163.78574	678.38158	-68.78251	166.06396	616.93829	-148.62920	174.28291	611.42841	-971.96396	1034.32358	468.40141	-960.04150	1039.60312	627.75982	-1117.72072	1034.45480	649.54941	-1095.27061	1039.60526	466.90895	-1040.32913	1379.08615	564.18102	-1178.90030	1406.90445	551.62621	-985.57381	1588.75031	583.45207	-1137.61070	1551.58997	655.35049	-1125.69214	1559.29657	492.34608	-1109.05472	1346.85028	737.66151	-1005.63683	1078.26454	764.78165	-1057.31888	1049.20731	790.85884	-1036.64207	1061.08475	719.43901	-882.76917	898.78944	657.01797	-877.01797	936.38229	631.60789	-913.40065	932.12997	613.81775	-1069.95361	1353.78357	387.88273	-1013.83308	1047.99355	333.61382	-993.05527	1071.40366	403.65578	-972.04155	1067.30713	352.88067	-931.50925	890.09407	496.94641	-894.56825	885.81711	477.43977	-885.53711	916.22360	511.25103	-1057.37976	875.23987	730.30197	-1029.04808	889.67201	392.67891	-1021.87424	451.02726	639.04091	-1128.75732	487.24365	684.36256	-1109.29733	486.35258	566.07525	-1009.31198	464.05510	506.49055	-1095.16968	480.70137	411.53530	-1116.76613	480.55840	535.90778	-1097.65221	166.19806	663.10356	-1130.92430	163.17211	597.24903	-1178.91357	155.47165	666.59920	-1066.77292	166.69577	456.05568	-1127.99088	168.56956	420.80772	-1126.12770	174.25747	510.30190 
2	20.033	-220.25455	1080.54573	693.59253	-283.14512	1090.06401	497.13558	-117.67819	1114.45107	404.36066	-36.99994	1098.70308	636.77258	-230.21448	1425.35828	581.18881	-149.71370	1521.10748	581.88358	-396.71745	1546.29517	581.91639	-268.19016	1634.64951	518.25123	-262.54705	1613.00095	665.07416	-187.30375	1437.94678	369.89647	-139.86122	1121.76613	282.73731	-112.30423	1104.57245	335.34576	-206.18143	1127.78595	321.69708	-223.77111	888.54828	283.82322	-258.39960	900.08545	311.54406	-236.36019	896.01402	348.13580	-117.56707	1441.63284	760.37590	-60.88659	1126.12610	760.20927	-125.73380	1140.16289	821.42105	-56.97703	1144.03076	829.55727	-164.04243	877.53403	800.96481	-156.96998	870.70152	846.97357	-110.75385	871.99852	844.11217	-174.00833	925.16655	362.67181	-132.46902	894.92302	725.87051	-240.25267	422.32815	411.53080	-172.14684	452.48215	357.26498	-178.15329	430.01194	480.41668	-183.47565	447.39868	687.18925	-78.75806	472.54013	667.25128	-179.53014	443.34827	594.21974	-202.81088	181.31817	378.54256	-179.14070	175.11105	440.45464	-126.67480	172.93827	370.79163	-121.97081	163.81239	678.43018	-68.72849	166.08707	616.98582	-148.58322	174.31122	611.46645	-972.24960	1034.13475	468.65204	-960.21606	1039.41154	627.85263	-1117.99255	1034.66362	649.55795	-1095.35378	1039.74800	466.93012	-1039.76074	1379.28253	564.13376	-1178.42819	1405.95001	551.44062	-986.41739	1589.97757	583.36758	-1138.14598	1551.20117	655.03822	-1126.11969	1558.88748	492.04685	-1108.72116	1346.58798	737.84340	-1007.18300	1076.96632	764.79355	-1059.46861	1048.21983	789.40796	-1036.88683	1060.57037	718.26584	-884.85748	896.19041	657.92961	-877.66747	933.80577	632.87762	-913.79311	930.28687	614.30969	-1069.17137	1353.59222	387.64221	-1014.63036	1047.43927	334.42059	-992.84271	1070.71388	403.99399	-972.52594	1066.47224	353.14327	-931.72821	889.25545	496.61457	-895.18471	883.87093	476.83739	-884.96544	913.78174	510.77782	-1057.85355	875.26382	730.35843	-1029.39384	889.63028	392.77241	-1022.31743	450.98244	639.12956	-1129.02153	487.13585	684.37653	-1109.59755	486.30150	566.17298	-1009.80301	463.97568	506.51249	-1095.51781	480.62954	411.52569	-1117.25548	480.45116	535.93609	-1097.77969	166.15986	663.10707	-1131.05179	163.14718	597.27131	-1179.04129	155.36343	666.61980	-1066.89362	166.70454	456.07021	-1128.12172	168.48492	420.81024	-1126.24832	174.15932	510.27573 
3	20.050	-221.87832	1080.39864	693.97758	-284.26048	1089.91989	497.52430	-118.73617	1114.62311	404.94259	-38.41329	1099.02222	637.51377	-230.79428	1428.65051	581.14250	-145.92108	1521.03271	581.23196	-390.30685	1562.89536	582.10888	-256.30625	1639.96811	515.94536	-251.24762	1620.38956	662.84256	-186.71026	1437.99072	369.72473	-140.28551	1121.30859	283.77953	-113.21651	1104.11324	336.60168	-206.83603	1127.53868	322.42931	-224.81562	888.34793	284.64396	-259.56135	899.94469	312.30284	-237.60235	895.76950	348.95367	-116.68300	1441.76315	760.43022	-61.83710	1125.98923	759.52873	-126.39228	1139.99367	821.29593	-57.78090	1143.85849	828.96751	-162.31094	876.47278	801.77200	-155.29660	870.12253	847.89185	-108.77271	871.99104	844.92180	-174.27677	925.17258	362.96604	-133.26834	894.88777	726.37360	-240.44067	422.23011	411.56788	-172.32311	452.40406	357.31434	-178.28306	429.89437	480.48985	-183.79301	447.22015	687.27158	-79.04914	472.52953	667.53502	-179.79576	443.25222	594.37393	-202.98475	181.26146	378.61595	-179.42741	175.08821	440.64888	-126.79987	172.92530	370.84743	-122.11603	163.76476	678.48000	-68.87243	166.11185	617.09671	-148.68637	174.31267	611.48178	-972.34467	1033.94104	468.80775	-960.44266	1039.24797	628.01125	-1118.19107	1034.81628	649.49936	-1095.37628	1039.88388	466.91589	-1039.33243	1379.45160	564.16924	-1178.11356	1405.19257	551.31973	-987.03217	1590.74432	583.25634	-1138.68637	1550.84732	654.68277	-1126.45195	1558.52448	491.77006	-1108.71895	1346.30493	737.96410	-1008.29086	1075.91644	764.70787	-1061.40686	1047.36404	788.21419	-1037.55836	1059.97421	717.53380	-886.85036	893.84003	658.69919	-878.02406	931.44997	634.09813	-913.69637	929.14291	614.68517	-1068.52852	1353.37830	387.42561	-1015.33859	1046.85791	335.18414	-992.86072	1070.10384	404.41219	-972.95219	1065.59509	353.45871	-931.95648	887.98225	495.83145	-896.02982	881.51848	476.17508	-884.17366	910.70595	510.23689	-1058.37723	875.27184	730.40260	-1029.67918	889.60838	392.80869	-1022.74208	450.93140	639.18316	-1129.50760	487.07306	684.43893	-1109.96895	486.23131	566.21872	-1010.31372	463.92742	506.57646	-1095.84885	480.58796	411.52035	-1117.63618	480.36003	535.88512	-1097.83104	166.11853	663.08998	-1131.17439	163.09706	597.27139	-1179.18289	155.25611	666.64383	-1067.03468	166.69991	456.09356	-1128.25371	168.41389	420.82298	-1126.39557	174.08812	510.26100 
4	20.067	-223.66123	1080.26627	694.47182	-285.42007	1089.77257	497.85957	-121.99134	1114.82376	408.30677	-39.89749	1099.30740	638.31726	-231.67377	1431.97815	581.64703	-142.29898	1520.59326	580.42336	-383.07922	1579.01550	582.04243	-244.03307	1644.47876	513.51433	-239.59724	1627.04147	660.45517	-186.31290	1438.09265	369.55093	-141.11532	1120.87059	284.71655	-114.25585	1103.76389	337.69142	-207.57336	1127.38037	322.96673	-226.17674	888.18558	285.69708	-260.90023	899.93469	313.39991	-238.85170	895.56152	350.06657	-116.02169	1441.82434	760.44472	-62.82014	1125.85777	758.98392	-126.96341	1139.87755	821.34354	-58.05816	1143.72360	828.37715	-160.87734	875.56526	802.76077	-153.93590	869.68819	848.95767	-107.09249	871.95427	845.80162	-174.34223	925.05737	363.24387	-134.06626	894.85268	726.88194	-240.92327	422.13047	411.64688	-172.77222	452.32517	357.39479	-178.65131	429.76585	480.63641	-184.35648	447.01935	687.51526	-79.77107	472.39002	668.24654	-180.38599	443.14110	594.59320	-203.20110	181.18931	378.70171	-179.60152	175.00172	440.69851	-126.98118	172.95683	370.91503	-122.46182	163.66924	678.59352	-69.10556	166.17504	617.26429	-148.91037	174.24606	611.60545	-972.21405	1033.80150	468.89935	-960.53825	1039.14780	628.13072	-1118.35983	1034.97574	649.45114	-1095.27390	1040.02159	466.88992	-1038.99414	1379.56146	564.24065	-1177.93823	1404.84558	551.18660	-987.51320	1591.22086	583.25020	-1139.09340	1550.77591	654.43771	-1126.56776	1558.27454	491.53488	-1108.90457	1346.02127	738.08731	-1009.40193	1075.01450	764.75510	-1062.88452	1046.65024	787.05864	-1038.10608	1059.43054	717.15141	-888.34816	892.24106	659.45633	-878.33107	929.77264	635.25616	-913.61282	928.23975	615.15991	-1068.01132	1353.18741	387.32471	-1015.92361	1046.42273	336.00494	-992.99431	1069.50890	404.88880	-973.15521	1064.89990	353.75496	-932.04697	885.60020	495.04486	-896.93741	879.21715	475.72624	-883.46809	908.39355	509.09492	-1058.96362	875.23026	730.43648	-1029.87511	889.59244	392.83466	-1023.09212	450.89920	639.14726	-1130.03136	487.02362	684.52988	-1110.40123	486.13384	566.25084	-1010.65857	463.89458	506.56544	-1096.12404	480.55279	411.47236	-1117.93900	480.31136	535.80116	-1097.97447	166.09711	663.07373	-1131.30272	163.05048	597.23156	-1179.28162	155.14786	666.64948	-1067.13928	166.70218	456.09524	-1128.33092	168.35796	420.79044	-1126.50612	174.04385	510.22057 
